<?xml version="1.0" encoding="utf-8"?>
<svg viewBox="0 0 220 220" xmlns="http://www.w3.org/2000/svg" xmlns:bx="https://boxy-svg.com">
  <g transform="matrix(0.7074, -0.276605, 0.276605, 0.7074, -90.710724, 2.578931)">
    <path d="M 631.557 194.587 L 646.127 212.153 L 667.61 198.005 L 674.085 217.566 L 700.742 207.984 L 698.598 227.956 L 728.27 223.714 L 717.68 242.478 L 747.962 243.921 L 729.785 259.958 L 758.223 266.969 L 733.932 278.979 L 758.223 290.989 L 729.785 298 L 747.962 314.037 L 717.68 315.48 L 728.27 334.244 L 698.598 330.002 L 700.742 349.974 L 674.085 340.392 L 667.61 359.953 L 646.127 345.805 L 631.557 363.371 L 616.987 345.805 L 595.504 359.953 L 589.029 340.392 L 562.372 349.974 L 564.516 330.002 L 534.844 334.244 L 545.434 315.48 L 515.152 314.037 L 533.329 298 L 504.891 290.989 L 529.182 278.979 L 504.891 266.969 L 533.329 259.958 L 515.152 243.921 L 545.434 242.478 L 534.844 223.714 L 564.516 227.956 L 562.372 207.984 L 589.029 217.566 L 595.504 198.005 L 616.987 212.153 Z" style="fill: rgb(245, 254, 1); stroke: rgb(200, 200, 200);" transform="matrix(0.985, 0.172553, -0.172553, 0.985, -393.483218, -136.797431)" bx:shape="star 631.557 278.979 127.969 84.392 0.8 22 1@182cdf72"/>
    <text style="white-space: pre; fill: rgb(51, 51, 51); font-family: Arial, sans-serif; font-size: 14.4px;" x="144.622" y="107.249" transform="matrix(0.984571, 0.174987, -0.174987, 0.984571, -20.002487, 93.314705)">✅ Anti-COVID Compliant</text>
    <text style="white-space: pre; fill: rgb(51, 51, 51); font-family: Arial, sans-serif; font-size: 14.4px;" x="144.622" y="131.478" transform="matrix(0.984571, 0.174987, -0.174987, 0.984571, -20.002487, 93.314705)">✅ Remote Work Support</text>
  </g>
</svg>